P3
8 8
255
255 0 0 255 0 0 255 0 0 255 0 0 255 0 0 255 0 0 255 0 0 255 0 0 
255 0 0 255 104 0 255 195 0 245 255 0 187 255 0 114 255 0 0 255 48 0 0 255 
255 0 0 255 195 0 148 255 0 23 255 0 0 255 67 0 255 155 0 222 255 0 0 255 
255 0 0 245 255 0 23 255 0 0 255 134 0 255 240 0 190 255 0 107 255 0 0 255 
255 0 0 187 255 0 0 255 67 0 255 240 0 163 255 0 99 255 0 49 255 0 0 255 
255 0 0 114 255 0 0 255 155 0 190 255 0 99 255 0 50 255 0 22 255 0 0 255 
255 0 0 0 255 48 0 222 255 0 107 255 0 49 255 0 22 255 0 8 255 0 0 255 
255 0 0 0 0 255 0 0 255 0 0 255 0 0 255 0 0 255 0 0 255 0 0 255 
