P3
8 8
255
255 0 0 255 0 0 255 0 0 255 0 0 255 0 0 255 0 0 255 0 0 255 0 0 
255 0 0 255 46 0 255 93 0 255 143 0 255 206 0 203 255 0 0 255 0 0 0 255 
255 0 0 255 93 0 255 183 0 236 255 0 135 255 0 0 255 0 0 255 203 0 0 255 
255 0 0 255 143 0 236 255 0 118 255 0 0 255 0 0 255 135 0 206 255 0 0 255 
255 0 0 255 206 0 135 255 0 0 255 0 0 255 118 0 255 236 0 143 255 0 0 255 
255 0 0 203 255 0 0 255 0 0 255 135 0 255 236 0 183 255 0 93 255 0 0 255 
255 0 0 0 255 0 0 255 203 0 206 255 0 143 255 0 93 255 0 46 255 0 0 255 
255 0 0 0 0 255 0 0 255 0 0 255 0 0 255 0 0 255 0 0 255 0 0 255 
