P3
8 8
255
255 0 0 255 0 0 255 0 0 255 0 0 255 0 0 255 0 0 255 0 0 255 0 0 
255 0 0 255 46 0 255 93 0 255 143 0 255 206 0 203 255 0 0 255 0 0 0 255 
255 0 0 255 93 0 255 184 0 235 255 0 134 255 0 0 255 0 0 255 203 0 0 255 
255 0 0 255 143 0 235 255 0 117 255 0 0 255 1 0 255 136 0 205 255 0 0 255 
255 0 0 255 206 0 134 255 0 0 255 1 0 255 119 0 255 237 0 142 255 0 0 255 
255 0 0 203 255 0 0 255 0 0 255 136 0 255 237 0 182 255 0 92 255 0 0 255 
255 0 0 0 255 0 0 255 203 0 205 255 0 142 255 0 92 255 0 46 255 0 0 255 
255 0 0 0 0 255 0 0 255 0 0 255 0 0 255 0 0 255 0 0 255 0 0 255 
