P3
8 8
255
255 0 0 255 0 0 255 0 0 255 0 0 255 0 0 255 0 0 255 0 0 255 0 0 
255 0 0 255 47 0 255 94 0 255 144 0 255 207 0 202 255 0 0 255 0 0 0 255 
255 0 0 255 94 0 255 185 0 233 255 0 132 255 0 0 255 2 0 255 204 0 0 255 
255 0 0 255 144 0 233 255 0 114 255 0 0 255 3 0 255 138 0 204 255 0 0 255 
255 0 0 255 207 0 132 255 0 0 255 3 0 255 122 0 255 239 0 141 255 0 0 255 
255 0 0 202 255 0 0 255 2 0 255 138 0 255 239 0 180 255 0 91 255 0 0 255 
255 0 0 0 255 0 0 255 204 0 204 255 0 141 255 0 91 255 0 45 255 0 0 255 
255 0 0 0 0 255 0 0 255 0 0 255 0 0 255 0 0 255 0 0 255 0 0 255 
