P3
8 8
255
255 0 0 255 0 0 255 0 0 255 0 0 255 0 0 255 0 0 255 0 0 255 0 0 
255 0 0 255 52 0 255 104 0 255 156 0 255 219 0 192 255 0 0 255 5 0 0 255 
255 0 0 255 104 0 255 202 0 212 255 0 111 255 0 0 255 19 0 255 214 0 0 255 
255 0 0 255 156 0 212 255 0 88 255 0 0 255 29 0 255 159 0 192 255 0 0 255 
255 0 0 255 219 0 111 255 0 0 255 29 0 255 148 0 249 255 0 129 255 0 0 255 
255 0 0 192 255 0 0 255 19 0 255 159 0 249 255 0 164 255 0 82 255 0 0 255 
255 0 0 0 255 5 0 255 214 0 192 255 0 129 255 0 82 255 0 40 255 0 0 255 
255 0 0 0 0 255 0 0 255 0 0 255 0 0 255 0 0 255 0 0 255 0 0 255 
