P3
8 8
255
255 0 0 255 0 0 255 0 0 255 0 0 255 0 0 255 0 0 255 0 0 255 0 0 
255 0 0 255 64 0 255 124 0 255 181 0 255 244 0 172 255 0 0 255 16 0 0 255 
255 0 0 255 124 0 255 239 0 167 255 0 66 255 0 0 255 54 0 255 233 0 0 255 
255 0 0 255 181 0 167 255 0 32 255 0 0 255 85 0 255 202 0 168 255 0 0 255 
255 0 0 255 244 0 66 255 0 0 255 85 0 255 202 0 206 255 0 106 255 0 0 255 
255 0 0 172 255 0 0 255 54 0 255 202 0 206 255 0 130 255 0 63 255 0 0 255 
255 0 0 0 255 16 0 255 233 0 168 255 0 106 255 0 63 255 0 30 255 0 0 255 
255 0 0 0 0 255 0 0 255 0 0 255 0 0 255 0 0 255 0 0 255 0 0 255 
