P3
8 8
255
255 0 0 255 0 0 255 0 0 255 0 0 255 0 0 255 0 0 255 0 0 255 0 0 
255 0 0 255 48 0 255 97 0 255 147 0 255 210 0 199 255 0 0 255 2 0 0 255 
255 0 0 255 97 0 255 190 0 228 255 0 126 255 0 0 255 6 0 255 207 0 0 255 
255 0 0 255 147 0 228 255 0 107 255 0 0 255 10 0 255 143 0 201 255 0 0 255 
255 0 0 255 210 0 126 255 0 0 255 10 0 255 128 0 255 245 0 138 255 0 0 255 
255 0 0 199 255 0 0 255 6 0 255 143 0 255 245 0 176 255 0 89 255 0 0 255 
255 0 0 0 255 2 0 255 207 0 201 255 0 138 255 0 89 255 0 44 255 0 0 255 
255 0 0 0 0 255 0 0 255 0 0 255 0 0 255 0 0 255 0 0 255 0 0 255 
