P3
16 16
255
255 0 0 255 0 0 255 0 0 255 0 0 255 0 0 255 0 0 255 0 0 255 0 0 255 0 0 255 0 0 255 0 0 255 0 0 255 0 0 255 0 0 255 0 0 255 0 0 
255 0 0 255 9 0 255 19 0 255 29 0 255 40 0 255 50 0 255 61 0 255 73 0 255 87 0 255 105 0 255 127 0 255 160 0 255 213 0 201 255 0 0 255 0 0 0 255 
255 0 0 255 19 0 255 39 0 255 59 0 255 79 0 255 100 0 255 121 0 255 145 0 255 172 0 255 204 0 255 245 0 208 255 0 126 255 0 0 255 0 0 255 201 0 0 255 
255 0 0 255 29 0 255 59 0 255 89 0 255 119 0 255 149 0 255 180 0 255 213 0 255 251 0 215 255 0 161 255 0 92 255 0 0 255 0 0 255 126 0 213 255 0 0 255 
255 0 0 255 40 0 255 79 0 255 119 0 255 158 0 255 197 0 255 236 0 231 255 0 186 255 0 134 255 0 74 255 0 0 255 0 0 255 92 0 255 208 0 160 255 0 0 255 
255 0 0 255 50 0 255 100 0 255 149 0 255 197 0 255 244 0 218 255 0 170 255 0 119 255 0 63 255 0 0 255 0 0 255 74 0 255 161 0 245 255 0 127 255 0 0 255 
255 0 0 255 61 0 255 121 0 255 180 0 255 236 0 218 255 0 165 255 0 112 255 0 58 255 0 0 255 0 0 255 63 0 255 134 0 255 215 0 204 255 0 105 255 0 0 255 
255 0 0 255 73 0 255 145 0 255 213 0 231 255 0 170 255 0 112 255 0 56 255 0 0 255 0 0 255 58 0 255 119 0 255 186 0 251 255 0 172 255 0 87 255 0 0 255 
255 0 0 255 87 0 255 172 0 255 251 0 186 255 0 119 255 0 58 255 0 0 255 0 0 255 56 0 255 112 0 255 170 0 255 231 0 213 255 0 145 255 0 73 255 0 0 255 
255 0 0 255 105 0 255 204 0 215 255 0 134 255 0 63 255 0 0 255 0 0 255 58 0 255 112 0 255 165 0 255 218 0 236 255 0 180 255 0 121 255 0 61 255 0 0 255 
255 0 0 255 127 0 255 245 0 161 255 0 74 255 0 0 255 0 0 255 63 0 255 119 0 255 170 0 255 218 0 244 255 0 197 255 0 149 255 0 100 255 0 50 255 0 0 255 
255 0 0 255 160 0 208 255 0 92 255 0 0 255 0 0 255 74 0 255 134 0 255 186 0 255 231 0 236 255 0 197 255 0 158 255 0 119 255 0 79 255 0 40 255 0 0 255 
255 0 0 255 213 0 126 255 0 0 255 0 0 255 92 0 255 161 0 255 215 0 251 255 0 213 255 0 180 255 0 149 255 0 119 255 0 89 255 0 59 255 0 29 255 0 0 255 
255 0 0 201 255 0 0 255 0 0 255 126 0 255 208 0 245 255 0 204 255 0 172 255 0 145 255 0 121 255 0 100 255 0 79 255 0 59 255 0 39 255 0 19 255 0 0 255 
255 0 0 0 255 0 0 255 201 0 213 255 0 160 255 0 127 255 0 105 255 0 87 255 0 73 255 0 61 255 0 50 255 0 40 255 0 29 255 0 19 255 0 9 255 0 0 255 
255 0 0 0 0 255 0 0 255 0 0 255 0 0 255 0 0 255 0 0 255 0 0 255 0 0 255 0 0 255 0 0 255 0 0 255 0 0 255 0 0 255 0 0 255 0 0 255 
