P3
11 11
255
255 0 0 255 0 0 255 0 0 255 0 0 255 0 0 255 0 0 255 0 0 255 0 0 255 0 0 255 0 0 255 0 0 
255 0 0 255 103 0 255 192 0 253 255 0 213 255 0 191 255 0 177 255 0 156 255 0 101 255 0 0 255 51 0 0 255 
255 0 0 255 192 0 154 255 0 34 255 0 0 255 37 0 255 76 0 255 98 0 255 125 0 255 177 0 215 255 0 0 255 
255 0 0 253 255 0 34 255 0 0 255 121 0 255 218 0 242 255 0 216 255 0 196 255 0 162 255 0 98 255 0 0 255 
255 0 0 213 255 0 0 255 37 0 255 218 0 183 255 0 127 255 0 102 255 0 87 255 0 70 255 0 40 255 0 0 255 
255 0 0 191 255 0 0 255 76 0 242 255 0 127 255 0 69 255 0 44 255 0 34 255 0 26 255 0 15 255 0 0 255 
255 0 0 177 255 0 0 255 98 0 216 255 0 102 255 0 44 255 0 21 255 0 12 255 0 8 255 0 4 255 0 0 255 
255 0 0 156 255 0 0 255 125 0 196 255 0 87 255 0 34 255 0 12 255 0 4 255 0 2 255 0 1 255 0 0 255 
255 0 0 101 255 0 0 255 177 0 162 255 0 70 255 0 26 255 0 8 255 0 2 255 0 0 255 0 0 255 0 0 255 
255 0 0 0 255 51 0 215 255 0 98 255 0 40 255 0 15 255 0 4 255 0 1 255 0 0 255 0 0 255 0 0 255 
255 0 0 0 0 255 0 0 255 0 0 255 0 0 255 0 0 255 0 0 255 0 0 255 0 0 255 0 0 255 0 0 255 
