P3
11 11
255
255 0 0 255 0 0 255 0 0 255 0 0 255 0 0 255 0 0 255 0 0 255 0 0 255 0 0 255 0 0 255 0 0 
255 0 0 255 26 0 255 52 0 255 77 0 255 103 0 255 132 0 255 168 0 255 221 0 195 255 0 0 255 3 0 0 255 
255 0 0 255 52 0 255 103 0 255 153 0 255 202 0 254 255 0 192 255 0 109 255 0 0 255 13 0 255 208 0 0 255 
255 0 0 255 77 0 255 153 0 255 225 0 215 255 0 145 255 0 68 255 0 0 255 24 0 255 146 0 202 255 0 0 255 
255 0 0 255 103 0 255 202 0 215 255 0 130 255 0 49 255 0 0 255 34 0 255 126 0 255 235 0 145 255 0 0 255 
255 0 0 255 132 0 254 255 0 145 255 0 49 255 0 0 255 38 0 255 121 0 255 206 0 210 255 0 108 255 0 0 255 
255 0 0 255 168 0 192 255 0 68 255 0 0 255 34 0 255 121 0 255 199 0 235 255 0 160 255 0 81 255 0 0 255 
255 0 0 255 221 0 109 255 0 0 255 24 0 255 126 0 255 206 0 235 255 0 175 255 0 116 255 0 58 255 0 0 255 
255 0 0 195 255 0 0 255 13 0 255 146 0 255 235 0 210 255 0 160 255 0 116 255 0 77 255 0 38 255 0 0 255 
255 0 0 0 255 3 0 255 208 0 202 255 0 145 255 0 108 255 0 81 255 0 58 255 0 38 255 0 19 255 0 0 255 
255 0 0 0 0 255 0 0 255 0 0 255 0 0 255 0 0 255 0 0 255 0 0 255 0 0 255 0 0 255 0 0 255 
