P3
11 11
255
255 0 0 255 0 0 255 0 0 255 0 0 255 0 0 255 0 0 255 0 0 255 0 0 255 0 0 255 0 0 255 0 0 
255 0 0 255 28 0 255 56 0 255 84 0 255 111 0 255 140 0 255 175 0 255 227 0 190 255 0 0 255 6 0 0 255 
255 0 0 255 56 0 255 112 0 255 165 0 255 217 0 239 255 0 178 255 0 97 255 0 0 255 21 0 255 213 0 0 255 
255 0 0 255 84 0 255 165 0 255 241 0 195 255 0 124 255 0 48 255 0 0 255 41 0 255 157 0 196 255 0 0 255 
255 0 0 255 111 0 255 217 0 195 255 0 107 255 0 25 255 0 0 255 56 0 255 145 0 255 248 0 138 255 0 0 255 
255 0 0 255 140 0 239 255 0 124 255 0 25 255 0 0 255 62 0 255 144 0 255 226 0 196 255 0 101 255 0 0 255 
255 0 0 255 175 0 178 255 0 48 255 0 0 255 56 0 255 144 0 255 221 0 217 255 0 146 255 0 74 255 0 0 255 
255 0 0 255 227 0 97 255 0 0 255 41 0 255 145 0 255 226 0 217 255 0 159 255 0 105 255 0 52 255 0 0 255 
255 0 0 190 255 0 0 255 21 0 255 157 0 255 248 0 196 255 0 146 255 0 105 255 0 68 255 0 34 255 0 0 255 
255 0 0 0 255 6 0 255 213 0 196 255 0 138 255 0 101 255 0 74 255 0 52 255 0 34 255 0 16 255 0 0 255 
255 0 0 0 0 255 0 0 255 0 0 255 0 0 255 0 0 255 0 0 255 0 0 255 0 0 255 0 0 255 0 0 255 
