P3
11 11
255
255 0 0 255 0 0 255 0 0 255 0 0 255 0 0 255 0 0 255 0 0 255 0 0 255 0 0 255 0 0 255 0 0 
255 0 0 255 22 0 255 45 0 255 68 0 255 93 0 255 121 0 255 158 0 255 212 0 201 255 0 0 255 0 0 0 255 
255 0 0 255 45 0 255 91 0 255 136 0 255 183 0 255 234 0 212 255 0 126 255 0 0 255 1 0 255 202 0 0 255 
255 0 0 255 68 0 255 136 0 255 201 0 242 255 0 173 255 0 95 255 0 0 255 2 0 255 129 0 210 255 0 0 255 
255 0 0 255 93 0 255 183 0 242 255 0 162 255 0 82 255 0 0 255 2 0 255 99 0 255 215 0 156 255 0 0 255 
255 0 0 255 121 0 255 234 0 173 255 0 82 255 0 0 255 3 0 255 88 0 255 178 0 231 255 0 119 255 0 0 255 
255 0 0 255 158 0 212 255 0 95 255 0 0 255 2 0 255 88 0 255 168 0 255 247 0 179 255 0 91 255 0 0 255 
255 0 0 255 212 0 126 255 0 0 255 2 0 255 99 0 255 178 0 255 247 0 197 255 0 133 255 0 67 255 0 0 255 
255 0 0 201 255 0 0 255 1 0 255 129 0 255 215 0 231 255 0 179 255 0 133 255 0 88 255 0 44 255 0 0 255 
255 0 0 0 255 0 0 255 202 0 210 255 0 156 255 0 119 255 0 91 255 0 67 255 0 44 255 0 22 255 0 0 255 
255 0 0 0 0 255 0 0 255 0 0 255 0 0 255 0 0 255 0 0 255 0 0 255 0 0 255 0 0 255 0 0 255 
