P3
11 11
255
255 0 0 255 0 0 255 0 0 255 0 0 255 0 0 255 0 0 255 0 0 255 0 0 255 0 0 255 0 0 255 0 0 
255 0 0 255 23 0 255 46 0 255 69 0 255 94 0 255 122 0 255 158 0 255 213 0 201 255 0 0 255 0 0 0 255 
255 0 0 255 46 0 255 91 0 255 137 0 255 184 0 255 235 0 211 255 0 125 255 0 0 255 1 0 255 202 0 0 255 
255 0 0 255 69 0 255 137 0 255 203 0 241 255 0 172 255 0 93 255 0 0 255 3 0 255 130 0 210 255 0 0 255 
255 0 0 255 94 0 255 184 0 241 255 0 160 255 0 80 255 0 0 255 4 0 255 101 0 255 216 0 155 255 0 0 255 
255 0 0 255 122 0 255 235 0 172 255 0 80 255 0 0 255 5 0 255 90 0 255 180 0 229 255 0 119 255 0 0 255 
255 0 0 255 158 0 211 255 0 93 255 0 0 255 4 0 255 90 0 255 169 0 255 249 0 178 255 0 91 255 0 0 255 
255 0 0 255 213 0 125 255 0 0 255 3 0 255 101 0 255 180 0 255 249 0 196 255 0 132 255 0 66 255 0 0 255 
255 0 0 201 255 0 0 255 1 0 255 130 0 255 216 0 229 255 0 178 255 0 132 255 0 88 255 0 44 255 0 0 255 
255 0 0 0 255 0 0 255 202 0 210 255 0 155 255 0 119 255 0 91 255 0 66 255 0 44 255 0 22 255 0 0 255 
255 0 0 0 0 255 0 0 255 0 0 255 0 0 255 0 0 255 0 0 255 0 0 255 0 0 255 0 0 255 0 0 255 
