P3
11 11
255
255 0 0 255 0 0 255 0 0 255 0 0 255 0 0 255 0 0 255 0 0 255 0 0 255 0 0 255 0 0 255 0 0 
255 0 0 255 22 0 255 45 0 255 68 0 255 92 0 255 120 0 255 157 0 255 211 0 201 255 0 0 255 0 0 0 255 
255 0 0 255 45 0 255 90 0 255 135 0 255 181 0 255 233 0 213 255 0 127 255 0 0 255 0 0 255 202 0 0 255 
255 0 0 255 68 0 255 135 0 255 200 0 244 255 0 175 255 0 96 255 0 0 255 0 0 255 128 0 211 255 0 0 255 
255 0 0 255 92 0 255 181 0 244 255 0 164 255 0 84 255 0 0 255 0 0 255 98 0 255 214 0 156 255 0 0 255 
255 0 0 255 120 0 255 233 0 175 255 0 84 255 0 0 255 0 0 255 86 0 255 176 0 232 255 0 120 255 0 0 255 
255 0 0 255 157 0 213 255 0 96 255 0 0 255 0 0 255 86 0 255 165 0 255 245 0 180 255 0 92 255 0 0 255 
255 0 0 255 211 0 127 255 0 0 255 0 0 255 98 0 255 176 0 255 245 0 199 255 0 134 255 0 67 255 0 0 255 
255 0 0 201 255 0 0 255 0 0 255 128 0 255 214 0 232 255 0 180 255 0 134 255 0 89 255 0 45 255 0 0 255 
255 0 0 0 255 0 0 255 202 0 211 255 0 156 255 0 120 255 0 92 255 0 67 255 0 45 255 0 22 255 0 0 255 
255 0 0 0 0 255 0 0 255 0 0 255 0 0 255 0 0 255 0 0 255 0 0 255 0 0 255 0 0 255 0 0 255 
