P3
11 11
255
255 0 0 255 0 0 255 0 0 255 0 0 255 0 0 255 0 0 255 0 0 255 0 0 255 0 0 255 0 0 255 0 0 
255 0 0 255 23 0 255 47 0 255 71 0 255 96 0 255 124 0 255 161 0 255 215 0 199 255 0 0 255 1 0 0 255 
255 0 0 255 47 0 255 94 0 255 141 0 255 189 0 255 241 0 206 255 0 121 255 0 0 255 4 0 255 204 0 0 255 
255 0 0 255 71 0 255 141 0 255 209 0 234 255 0 164 255 0 86 255 0 0 255 9 0 255 134 0 208 255 0 0 255 
255 0 0 255 96 0 255 189 0 234 255 0 152 255 0 72 255 0 0 255 12 0 255 108 0 255 221 0 153 255 0 0 255 
255 0 0 255 124 0 255 241 0 164 255 0 72 255 0 0 255 13 0 255 98 0 255 187 0 224 255 0 116 255 0 0 255 
255 0 0 255 161 0 206 255 0 86 255 0 0 255 12 0 255 98 0 255 177 0 254 255 0 173 255 0 88 255 0 0 255 
255 0 0 255 215 0 121 255 0 0 255 9 0 255 108 0 255 187 0 254 255 0 190 255 0 128 255 0 64 255 0 0 255 
255 0 0 199 255 0 0 255 4 0 255 134 0 255 221 0 224 255 0 173 255 0 128 255 0 85 255 0 42 255 0 0 255 
255 0 0 0 255 1 0 255 204 0 208 255 0 153 255 0 116 255 0 88 255 0 64 255 0 42 255 0 21 255 0 0 255 
255 0 0 0 0 255 0 0 255 0 0 255 0 0 255 0 0 255 0 0 255 0 0 255 0 0 255 0 0 255 0 0 255 
