P3
11 11
255
255 0 0 255 0 0 255 0 0 255 0 0 255 0 0 255 0 0 255 0 0 255 0 0 255 0 0 255 0 0 255 0 0 
255 0 0 255 58 0 255 111 0 255 156 0 255 192 0 255 221 0 255 249 0 222 255 0 148 255 0 0 255 27 0 0 255 
255 0 0 255 111 0 255 213 0 210 255 0 142 255 0 89 255 0 42 255 0 0 255 12 0 255 99 0 255 253 0 0 255 
255 0 0 255 156 0 210 255 0 91 255 0 0 255 2 0 255 72 0 255 129 0 255 185 0 250 255 0 144 255 0 0 255 
255 0 0 255 192 0 142 255 0 0 255 2 0 255 113 0 255 195 0 254 255 0 203 255 0 149 255 0 81 255 0 0 255 
255 0 0 255 221 0 89 255 0 0 255 72 0 255 195 0 228 255 0 169 255 0 125 255 0 86 255 0 45 255 0 0 255 
255 0 0 255 249 0 42 255 0 0 255 129 0 254 255 0 169 255 0 113 255 0 76 255 0 49 255 0 24 255 0 0 255 
255 0 0 222 255 0 0 255 12 0 255 185 0 203 255 0 125 255 0 76 255 0 47 255 0 27 255 0 13 255 0 0 255 
255 0 0 148 255 0 0 255 99 0 250 255 0 149 255 0 86 255 0 49 255 0 27 255 0 15 255 0 6 255 0 0 255 
255 0 0 0 255 27 0 255 253 0 144 255 0 81 255 0 45 255 0 24 255 0 13 255 0 6 255 0 2 255 0 0 255 
255 0 0 0 0 255 0 0 255 0 0 255 0 0 255 0 0 255 0 0 255 0 0 255 0 0 255 0 0 255 0 0 255 
