P3
11 11
255
255 0 0 255 0 0 255 0 0 255 0 0 255 0 0 255 0 0 255 0 0 255 0 0 255 0 0 255 0 0 255 0 0 
255 0 0 255 22 0 255 45 0 255 68 0 255 93 0 255 121 0 255 157 0 255 212 0 201 255 0 0 255 0 0 0 255 
255 0 0 255 45 0 255 90 0 255 135 0 255 182 0 255 234 0 212 255 0 127 255 0 0 255 0 0 255 202 0 0 255 
255 0 0 255 68 0 255 135 0 255 201 0 243 255 0 174 255 0 96 255 0 0 255 1 0 255 128 0 211 255 0 0 255 
255 0 0 255 93 0 255 182 0 243 255 0 163 255 0 83 255 0 0 255 1 0 255 98 0 255 214 0 156 255 0 0 255 
255 0 0 255 121 0 255 234 0 174 255 0 83 255 0 0 255 1 0 255 87 0 255 177 0 231 255 0 120 255 0 0 255 
255 0 0 255 157 0 212 255 0 96 255 0 0 255 1 0 255 87 0 255 166 0 255 246 0 180 255 0 91 255 0 0 255 
255 0 0 255 212 0 127 255 0 0 255 1 0 255 98 0 255 177 0 255 246 0 198 255 0 133 255 0 67 255 0 0 255 
255 0 0 201 255 0 0 255 0 0 255 128 0 255 214 0 231 255 0 180 255 0 133 255 0 89 255 0 44 255 0 0 255 
255 0 0 0 255 0 0 255 202 0 211 255 0 156 255 0 120 255 0 91 255 0 67 255 0 44 255 0 22 255 0 0 255 
255 0 0 0 0 255 0 0 255 0 0 255 0 0 255 0 0 255 0 0 255 0 0 255 0 0 255 0 0 255 0 0 255 
