P3
11 11
255
255 0 0 255 0 0 255 0 0 255 0 0 255 0 0 255 0 0 255 0 0 255 0 0 255 0 0 255 0 0 255 0 0 
255 0 0 255 23 0 255 46 0 255 70 0 255 95 0 255 123 0 255 159 0 255 213 0 200 255 0 0 255 0 0 0 255 
255 0 0 255 46 0 255 92 0 255 138 0 255 186 0 255 237 0 209 255 0 124 255 0 0 255 2 0 255 203 0 0 255 
255 0 0 255 70 0 255 138 0 255 205 0 238 255 0 169 255 0 91 255 0 0 255 5 0 255 132 0 209 255 0 0 255 
255 0 0 255 95 0 255 186 0 238 255 0 157 255 0 77 255 0 0 255 7 0 255 104 0 255 218 0 154 255 0 0 255 
255 0 0 255 123 0 255 237 0 169 255 0 77 255 0 0 255 8 0 255 93 0 255 183 0 227 255 0 118 255 0 0 255 
255 0 0 255 159 0 209 255 0 91 255 0 0 255 7 0 255 93 0 255 172 0 255 251 0 176 255 0 90 255 0 0 255 
255 0 0 255 213 0 124 255 0 0 255 5 0 255 104 0 255 183 0 255 251 0 194 255 0 130 255 0 66 255 0 0 255 
255 0 0 200 255 0 0 255 2 0 255 132 0 255 218 0 227 255 0 176 255 0 130 255 0 87 255 0 43 255 0 0 255 
255 0 0 0 255 0 0 255 203 0 209 255 0 154 255 0 118 255 0 90 255 0 66 255 0 43 255 0 21 255 0 0 255 
255 0 0 0 0 255 0 0 255 0 0 255 0 0 255 0 0 255 0 0 255 0 0 255 0 0 255 0 0 255 0 0 255 
