P3
11 11
255
255 0 0 255 0 0 255 0 0 255 0 0 255 0 0 255 0 0 255 0 0 255 0 0 255 0 0 255 0 0 255 0 0 
255 0 0 255 24 0 255 49 0 255 73 0 255 99 0 255 127 0 255 163 0 255 217 0 197 255 0 0 255 2 0 0 255 
255 0 0 255 49 0 255 98 0 255 145 0 255 194 0 255 246 0 200 255 0 117 255 0 0 255 7 0 255 206 0 0 255 
255 0 0 255 73 0 255 145 0 255 215 0 227 255 0 157 255 0 79 255 0 0 255 15 0 255 138 0 206 255 0 0 255 
255 0 0 255 99 0 255 194 0 227 255 0 144 255 0 63 255 0 0 255 20 0 255 115 0 255 226 0 150 255 0 0 255 
255 0 0 255 127 0 255 246 0 157 255 0 63 255 0 0 255 23 0 255 107 0 255 194 0 219 255 0 113 255 0 0 255 
255 0 0 255 163 0 200 255 0 79 255 0 0 255 20 0 255 107 0 255 186 0 247 255 0 168 255 0 85 255 0 0 255 
255 0 0 255 217 0 117 255 0 0 255 15 0 255 115 0 255 194 0 247 255 0 184 255 0 123 255 0 62 255 0 0 255 
255 0 0 197 255 0 0 255 7 0 255 138 0 255 226 0 219 255 0 168 255 0 123 255 0 82 255 0 41 255 0 0 255 
255 0 0 0 255 2 0 255 206 0 206 255 0 150 255 0 113 255 0 85 255 0 62 255 0 41 255 0 20 255 0 0 255 
255 0 0 0 0 255 0 0 255 0 0 255 0 0 255 0 0 255 0 0 255 0 0 255 0 0 255 0 0 255 0 0 255 
