P3
11 11
255
255 0 0 255 0 0 255 0 0 255 0 0 255 0 0 255 0 0 255 0 0 255 0 0 255 0 0 255 0 0 255 0 0 
255 0 0 255 33 0 255 65 0 255 95 0 255 124 0 255 153 0 255 188 0 255 238 0 183 255 0 0 255 9 0 0 255 
255 0 0 255 65 0 255 127 0 255 186 0 255 241 0 214 255 0 154 255 0 78 255 0 0 255 35 0 255 220 0 0 255 
255 0 0 255 95 0 255 186 0 239 255 0 162 255 0 90 255 0 16 255 0 0 255 67 0 255 177 0 186 255 0 0 255 
255 0 0 255 124 0 255 241 0 162 255 0 69 255 0 0 255 14 0 255 93 0 255 176 0 239 255 0 127 255 0 0 255 
255 0 0 255 153 0 214 255 0 90 255 0 0 255 14 0 255 103 0 255 183 0 251 255 0 173 255 0 89 255 0 0 255 
255 0 0 255 188 0 154 255 0 16 255 0 0 255 93 0 255 183 0 252 255 0 187 255 0 125 255 0 63 255 0 0 255 
255 0 0 255 238 0 78 255 0 0 255 67 0 255 176 0 251 255 0 187 255 0 134 255 0 87 255 0 43 255 0 0 255 
255 0 0 183 255 0 0 255 35 0 255 177 0 239 255 0 173 255 0 125 255 0 87 255 0 55 255 0 27 255 0 0 255 
255 0 0 0 255 9 0 255 220 0 186 255 0 127 255 0 89 255 0 63 255 0 43 255 0 27 255 0 13 255 0 0 255 
255 0 0 0 0 255 0 0 255 0 0 255 0 0 255 0 0 255 0 0 255 0 0 255 0 0 255 0 0 255 0 0 255 
