P3
11 11
255
255 0 0 255 0 0 255 0 0 255 0 0 255 0 0 255 0 0 255 0 0 255 0 0 255 0 0 255 0 0 255 0 0 
255 0 0 255 41 0 255 80 0 255 115 0 255 147 0 255 177 0 255 209 0 254 255 0 170 255 0 0 255 16 0 0 255 
255 0 0 255 80 0 255 156 0 255 224 0 225 255 0 170 255 0 114 255 0 45 255 0 0 255 59 0 255 233 0 0 255 
255 0 0 255 115 0 255 224 0 188 255 0 104 255 0 31 255 0 0 255 37 0 255 112 0 255 208 0 169 255 0 0 255 
255 0 0 255 147 0 225 255 0 104 255 0 3 255 0 0 255 81 0 255 155 0 255 227 0 203 255 0 108 255 0 0 255 
255 0 0 255 177 0 170 255 0 31 255 0 0 255 81 0 255 171 0 255 245 0 200 255 0 137 255 0 71 255 0 0 255 
255 0 0 255 209 0 114 255 0 0 255 37 0 255 155 0 255 245 0 196 255 0 141 255 0 92 255 0 46 255 0 0 255 
255 0 0 254 255 0 45 255 0 0 255 112 0 255 227 0 200 255 0 141 255 0 96 255 0 61 255 0 29 255 0 0 255 
255 0 0 170 255 0 0 255 59 0 255 208 0 203 255 0 137 255 0 92 255 0 61 255 0 37 255 0 17 255 0 0 255 
255 0 0 0 255 16 0 255 233 0 169 255 0 108 255 0 71 255 0 46 255 0 29 255 0 17 255 0 8 255 0 0 255 
255 0 0 0 0 255 0 0 255 0 0 255 0 0 255 0 0 255 0 0 255 0 0 255 0 0 255 0 0 255 0 0 255 
